<mxfile modified="2019-11-05T23:54:14.112Z" host="www.draw.io" agent="Mozilla/5.0 (Windows NT 10.0; Win64; x64; rv:70.0) Gecko/20100101 Firefox/70.0" etag="0XdRhECcHE81KmOflfh8" version="12.2.0" type="github" pages="3">
  <diagram id="wLkoinlVrgHqXl1Fj19s" name="FLUXOGRAMA GERAL">
    <mxGraphModel dx="971" dy="521" grid="1" gridSize="10" guides="1" tooltips="1" connect="1" arrows="1" fold="1" page="1" pageScale="1" pageWidth="1169" pageHeight="827" math="0" shadow="0">
      <root>
        <mxCell id="0"/>
        <mxCell id="ApiQS99FZD5KeMouJWTY-26" value="A-SOLICITAÇÃO" parent="0"/>
        <UserObject label="1. ATENDIMENTO" link="data:page/id,HFI7xTPP_atM2Y7WmZ0P" id="ApiQS99FZD5KeMouJWTY-1">
          <mxCell style="rounded=1;whiteSpace=wrap;html=1;" parent="ApiQS99FZD5KeMouJWTY-26" vertex="1">
            <mxGeometry x="39" y="87" width="120" height="60" as="geometry"/>
          </mxCell>
        </UserObject>
        <mxCell id="ApiQS99FZD5KeMouJWTY-3" value="" style="edgeStyle=orthogonalEdgeStyle;rounded=0;orthogonalLoop=1;jettySize=auto;html=1;" parent="ApiQS99FZD5KeMouJWTY-26" source="ApiQS99FZD5KeMouJWTY-1" target="ApiQS99FZD5KeMouJWTY-2" edge="1">
          <mxGeometry relative="1" as="geometry"/>
        </mxCell>
        <mxCell id="ApiQS99FZD5KeMouJWTY-2" value="2. REGISTRO" style="rounded=1;whiteSpace=wrap;html=1;" parent="ApiQS99FZD5KeMouJWTY-26" vertex="1">
          <mxGeometry x="39" y="227" width="120" height="60" as="geometry"/>
        </mxCell>
        <mxCell id="ApiQS99FZD5KeMouJWTY-6" style="edgeStyle=orthogonalEdgeStyle;rounded=0;orthogonalLoop=1;jettySize=auto;html=1;" parent="ApiQS99FZD5KeMouJWTY-26" source="ApiQS99FZD5KeMouJWTY-2" target="ApiQS99FZD5KeMouJWTY-5" edge="1">
          <mxGeometry relative="1" as="geometry"/>
        </mxCell>
        <mxCell id="ApiQS99FZD5KeMouJWTY-31" value="B - ANÁLISE" style="swimlane;fillColor=#ffffff;gradientColor=none;container=1;collapsible=0;autosize=0;startSize=28;" parent="ApiQS99FZD5KeMouJWTY-26" vertex="1">
          <mxGeometry x="189" y="37" width="160" height="490" as="geometry"/>
        </mxCell>
        <mxCell id="ApiQS99FZD5KeMouJWTY-32" value="C - EXECUÇÃO" style="swimlane;fillColor=#ffffff;gradientColor=none;container=1;collapsible=0;autosize=0;startSize=28;" parent="ApiQS99FZD5KeMouJWTY-26" vertex="1">
          <mxGeometry x="349" y="37" width="250" height="490" as="geometry"/>
        </mxCell>
        <mxCell id="ApiQS99FZD5KeMouJWTY-33" value="D - ENCERRAMENTO&#xa;" style="swimlane;fillColor=#ffffff;gradientColor=none;container=1;collapsible=0;autosize=0;startSize=28;fontSize=14;verticalAlign=top;" parent="ApiQS99FZD5KeMouJWTY-26" vertex="1">
          <mxGeometry x="599" y="37" width="250" height="490" as="geometry"/>
        </mxCell>
        <mxCell id="pziNUxlbCMZyWXBMgRjh-1" style="edgeStyle=orthogonalEdgeStyle;rounded=0;orthogonalLoop=1;jettySize=auto;html=1;entryX=0;entryY=0.5;entryDx=0;entryDy=0;" parent="ApiQS99FZD5KeMouJWTY-26" source="ApiQS99FZD5KeMouJWTY-12" target="ApiQS99FZD5KeMouJWTY-15" edge="1">
          <mxGeometry relative="1" as="geometry"/>
        </mxCell>
        <object label="A - SOLICITAÇÃO - CONT" Descrição="Etapa de recepção e triagem das necessidades do cliente" id="1">
          <mxCell parent="0"/>
        </object>
        <mxCell id="ApiQS99FZD5KeMouJWTY-30" value="A - SOLICITAÇÃO&#xa;" style="swimlane;fillColor=#ffffff;gradientColor=none;container=1;collapsible=0;autosize=1;startSize=28;" parent="1" vertex="1">
          <mxGeometry x="19" y="37" width="170" height="490" as="geometry"/>
        </mxCell>
        <mxCell id="gFR_GFgGl5uEjHREC4LY-3" value="GERAL" parent="0"/>
        <mxCell id="ApiQS99FZD5KeMouJWTY-29" value="D-ENCERRAMENTO" parent="0"/>
        <mxCell id="ApiQS99FZD5KeMouJWTY-15" value="&lt;div&gt;1. VALIDAÇÃO&lt;/div&gt;&lt;div&gt;(Unidade de Ligação)&lt;br&gt;&lt;/div&gt;" style="rounded=1;whiteSpace=wrap;html=1;" parent="ApiQS99FZD5KeMouJWTY-29" vertex="1">
          <mxGeometry x="681" y="89" width="120" height="60" as="geometry"/>
        </mxCell>
        <mxCell id="ApiQS99FZD5KeMouJWTY-25" style="edgeStyle=orthogonalEdgeStyle;rounded=0;orthogonalLoop=1;jettySize=auto;html=1;entryX=0.5;entryY=0;entryDx=0;entryDy=0;" parent="ApiQS99FZD5KeMouJWTY-29" source="ApiQS99FZD5KeMouJWTY-15" target="ApiQS99FZD5KeMouJWTY-24" edge="1">
          <mxGeometry relative="1" as="geometry"/>
        </mxCell>
        <mxCell id="ApiQS99FZD5KeMouJWTY-24" value="2. ENCERRAMENTO" style="rounded=1;whiteSpace=wrap;html=1;" parent="ApiQS99FZD5KeMouJWTY-29" vertex="1">
          <mxGeometry x="666" y="287" width="150" height="60" as="geometry"/>
        </mxCell>
        <mxCell id="ApiQS99FZD5KeMouJWTY-28" value="C-EXECUÇÃO" parent="0"/>
        <mxCell id="ApiQS99FZD5KeMouJWTY-11" value="&lt;div&gt;1. PROGRAMAÇÃO&lt;/div&gt;&lt;div&gt;(Unidade de Ligação)&lt;br&gt;&lt;/div&gt;" style="rounded=1;whiteSpace=wrap;html=1;" parent="ApiQS99FZD5KeMouJWTY-28" vertex="1">
          <mxGeometry x="419" y="86" width="120" height="60" as="geometry"/>
        </mxCell>
        <mxCell id="ApiQS99FZD5KeMouJWTY-13" value="" style="edgeStyle=orthogonalEdgeStyle;rounded=0;orthogonalLoop=1;jettySize=auto;html=1;" parent="ApiQS99FZD5KeMouJWTY-28" source="ApiQS99FZD5KeMouJWTY-11" target="ApiQS99FZD5KeMouJWTY-12" edge="1">
          <mxGeometry relative="1" as="geometry"/>
        </mxCell>
        <mxCell id="ApiQS99FZD5KeMouJWTY-12" value="&lt;div&gt;2. EXECUÇÃO&lt;/div&gt;&lt;div&gt;(Terceirizada)&lt;br&gt;&lt;/div&gt;" style="rounded=1;whiteSpace=wrap;html=1;" parent="ApiQS99FZD5KeMouJWTY-28" vertex="1">
          <mxGeometry x="419" y="237" width="120" height="60" as="geometry"/>
        </mxCell>
        <mxCell id="ApiQS99FZD5KeMouJWTY-14" style="edgeStyle=orthogonalEdgeStyle;rounded=0;orthogonalLoop=1;jettySize=auto;html=1;entryX=0;entryY=0.5;entryDx=0;entryDy=0;" parent="ApiQS99FZD5KeMouJWTY-28" source="ApiQS99FZD5KeMouJWTY-7" target="ApiQS99FZD5KeMouJWTY-11" edge="1">
          <mxGeometry relative="1" as="geometry"/>
        </mxCell>
        <mxCell id="ApiQS99FZD5KeMouJWTY-27" value="B-ANÁLISE E CADASTRO" parent="0"/>
        <mxCell id="ApiQS99FZD5KeMouJWTY-5" value="1. ANÁLISE DE VIABILIDADE TÉCNICA" style="rounded=1;whiteSpace=wrap;html=1;" parent="ApiQS99FZD5KeMouJWTY-27" vertex="1">
          <mxGeometry x="209" y="227" width="120" height="60" as="geometry"/>
        </mxCell>
        <mxCell id="ApiQS99FZD5KeMouJWTY-8" value="" style="edgeStyle=orthogonalEdgeStyle;rounded=0;orthogonalLoop=1;jettySize=auto;html=1;" parent="ApiQS99FZD5KeMouJWTY-27" source="ApiQS99FZD5KeMouJWTY-5" target="ApiQS99FZD5KeMouJWTY-7" edge="1">
          <mxGeometry relative="1" as="geometry"/>
        </mxCell>
        <mxCell id="ApiQS99FZD5KeMouJWTY-7" value="&lt;div&gt;2. CADASTRO COMERCIAL&lt;/div&gt;&lt;div&gt;(Implantação)&lt;br&gt;&lt;/div&gt;" style="rounded=1;whiteSpace=wrap;html=1;" parent="ApiQS99FZD5KeMouJWTY-27" vertex="1">
          <mxGeometry x="209" y="367" width="120" height="60" as="geometry"/>
        </mxCell>
      </root>
    </mxGraphModel>
  </diagram>
  <diagram id="HFI7xTPP_atM2Y7WmZ0P" name="A - ATENDIMENTO">
    <mxGraphModel dx="570" dy="427" grid="1" gridSize="10" guides="1" tooltips="0" connect="1" arrows="1" fold="1" page="1" pageScale="1" pageWidth="827" pageHeight="1169" math="0" shadow="0">
      <root>
        <mxCell id="jiuOkP8X30983bxHW5AK-0"/>
        <mxCell id="jiuOkP8X30983bxHW5AK-1" parent="jiuOkP8X30983bxHW5AK-0"/>
        <mxCell id="t2a3-KyeCBMco-ZNKFPz-2" value="" style="edgeStyle=orthogonalEdgeStyle;rounded=0;orthogonalLoop=1;jettySize=auto;html=1;fontSize=14;" edge="1" parent="jiuOkP8X30983bxHW5AK-1" source="t2a3-KyeCBMco-ZNKFPz-0" target="t2a3-KyeCBMco-ZNKFPz-1">
          <mxGeometry relative="1" as="geometry"/>
        </mxCell>
        <mxCell id="t2a3-KyeCBMco-ZNKFPz-29" value="&lt;font style=&quot;font-size: 12px&quot;&gt;&lt;i&gt;pré-atendente&lt;br&gt;recebe&lt;/i&gt;&lt;/font&gt;" style="text;html=1;resizable=0;points=[];align=center;verticalAlign=middle;labelBackgroundColor=#ffffff;fontSize=14;" vertex="1" connectable="0" parent="t2a3-KyeCBMco-ZNKFPz-2">
          <mxGeometry x="-0.2409" relative="1" as="geometry">
            <mxPoint x="15" as="offset"/>
          </mxGeometry>
        </mxCell>
        <mxCell id="t2a3-KyeCBMco-ZNKFPz-0" value="Recepção" style="rounded=1;whiteSpace=wrap;html=1;fillColor=#ffffff;gradientColor=none;fontSize=14;" vertex="1" parent="jiuOkP8X30983bxHW5AK-1">
          <mxGeometry x="29" y="230" width="120" height="50" as="geometry"/>
        </mxCell>
        <mxCell id="t2a3-KyeCBMco-ZNKFPz-4" value="" style="edgeStyle=orthogonalEdgeStyle;rounded=0;orthogonalLoop=1;jettySize=auto;html=1;fontSize=14;" edge="1" parent="jiuOkP8X30983bxHW5AK-1" source="t2a3-KyeCBMco-ZNKFPz-1" target="t2a3-KyeCBMco-ZNKFPz-3">
          <mxGeometry relative="1" as="geometry"/>
        </mxCell>
        <mxCell id="t2a3-KyeCBMco-ZNKFPz-20" value="&lt;i&gt;&lt;font style=&quot;font-size: 12px&quot;&gt;pré-atendente&lt;br&gt;encaminha&lt;/font&gt;&lt;br&gt;&lt;/i&gt;" style="text;html=1;resizable=0;points=[];align=center;verticalAlign=middle;labelBackgroundColor=#ffffff;fontSize=14;" vertex="1" connectable="0" parent="t2a3-KyeCBMco-ZNKFPz-4">
          <mxGeometry x="-0.2774" relative="1" as="geometry">
            <mxPoint as="offset"/>
          </mxGeometry>
        </mxCell>
        <mxCell id="t2a3-KyeCBMco-ZNKFPz-1" value="Triagem" style="rounded=1;whiteSpace=wrap;html=1;fillColor=#ffffff;gradientColor=none;fontSize=14;" vertex="1" parent="jiuOkP8X30983bxHW5AK-1">
          <mxGeometry x="274" y="230" width="140" height="50" as="geometry"/>
        </mxCell>
        <mxCell id="t2a3-KyeCBMco-ZNKFPz-6" style="edgeStyle=orthogonalEdgeStyle;rounded=0;orthogonalLoop=1;jettySize=auto;html=1;entryX=1;entryY=0.5;entryDx=0;entryDy=0;fontSize=14;" edge="1" parent="jiuOkP8X30983bxHW5AK-1" source="t2a3-KyeCBMco-ZNKFPz-3" target="t2a3-KyeCBMco-ZNKFPz-5">
          <mxGeometry relative="1" as="geometry"/>
        </mxCell>
        <mxCell id="t2a3-KyeCBMco-ZNKFPz-19" value="&lt;font style=&quot;font-size: 10px&quot;&gt;&lt;i&gt;Atendente confere&lt;/i&gt;&lt;/font&gt;&lt;br&gt;" style="text;html=1;resizable=0;points=[];align=center;verticalAlign=middle;labelBackgroundColor=#ffffff;fontSize=14;" vertex="1" connectable="0" parent="t2a3-KyeCBMco-ZNKFPz-6">
          <mxGeometry x="0.0015" y="-9" relative="1" as="geometry">
            <mxPoint x="8" y="8" as="offset"/>
          </mxGeometry>
        </mxCell>
        <mxCell id="t2a3-KyeCBMco-ZNKFPz-8" style="edgeStyle=orthogonalEdgeStyle;rounded=0;orthogonalLoop=1;jettySize=auto;html=1;entryX=0.5;entryY=0;entryDx=0;entryDy=0;fontSize=14;" edge="1" parent="jiuOkP8X30983bxHW5AK-1" source="t2a3-KyeCBMco-ZNKFPz-3" target="t2a3-KyeCBMco-ZNKFPz-7">
          <mxGeometry relative="1" as="geometry"/>
        </mxCell>
        <mxCell id="t2a3-KyeCBMco-ZNKFPz-3" value="Checklist da documentação" style="rounded=1;whiteSpace=wrap;html=1;fillColor=#ffffff;gradientColor=none;fontSize=14;" vertex="1" parent="jiuOkP8X30983bxHW5AK-1">
          <mxGeometry x="274" y="360" width="140" height="50" as="geometry"/>
        </mxCell>
        <mxCell id="t2a3-KyeCBMco-ZNKFPz-5" value="&lt;font style=&quot;font-size: 11px&quot;&gt;Relação de documentos&lt;/font&gt;&lt;div style=&quot;text-align: left&quot;&gt;&lt;/div&gt;" style="shape=document;whiteSpace=wrap;html=1;boundedLbl=1;fillColor=#ffffff;gradientColor=none;fontSize=14;size=0.16666666666666666;" vertex="1" parent="jiuOkP8X30983bxHW5AK-1">
          <mxGeometry x="21" y="354" width="120" height="64" as="geometry"/>
        </mxCell>
        <mxCell id="t2a3-KyeCBMco-ZNKFPz-12" style="edgeStyle=orthogonalEdgeStyle;rounded=0;orthogonalLoop=1;jettySize=auto;html=1;entryX=1;entryY=0.5;entryDx=0;entryDy=0;fontSize=14;" edge="1" parent="jiuOkP8X30983bxHW5AK-1" source="t2a3-KyeCBMco-ZNKFPz-7" target="t2a3-KyeCBMco-ZNKFPz-11">
          <mxGeometry relative="1" as="geometry"/>
        </mxCell>
        <mxCell id="t2a3-KyeCBMco-ZNKFPz-13" value="&lt;font style=&quot;font-size: 12px&quot;&gt;Não&lt;/font&gt;" style="text;html=1;resizable=0;points=[];align=center;verticalAlign=middle;labelBackgroundColor=#ffffff;fontSize=14;" vertex="1" connectable="0" parent="t2a3-KyeCBMco-ZNKFPz-12">
          <mxGeometry x="0.0041" y="-7" relative="1" as="geometry">
            <mxPoint x="7" y="6" as="offset"/>
          </mxGeometry>
        </mxCell>
        <mxCell id="t2a3-KyeCBMco-ZNKFPz-17" style="edgeStyle=orthogonalEdgeStyle;rounded=0;orthogonalLoop=1;jettySize=auto;html=1;fontSize=14;entryX=0.5;entryY=0;entryDx=0;entryDy=0;" edge="1" parent="jiuOkP8X30983bxHW5AK-1" source="t2a3-KyeCBMco-ZNKFPz-7" target="t2a3-KyeCBMco-ZNKFPz-23">
          <mxGeometry relative="1" as="geometry">
            <mxPoint x="344" y="566" as="targetPoint"/>
          </mxGeometry>
        </mxCell>
        <mxCell id="t2a3-KyeCBMco-ZNKFPz-18" value="&lt;font style=&quot;font-size: 12px&quot;&gt;Sim&lt;/font&gt;" style="text;html=1;resizable=0;points=[];align=center;verticalAlign=middle;labelBackgroundColor=#ffffff;fontSize=14;" vertex="1" connectable="0" parent="t2a3-KyeCBMco-ZNKFPz-17">
          <mxGeometry x="-0.0934" relative="1" as="geometry">
            <mxPoint as="offset"/>
          </mxGeometry>
        </mxCell>
        <mxCell id="t2a3-KyeCBMco-ZNKFPz-7" value="Conforme?" style="rhombus;whiteSpace=wrap;html=1;fillColor=#ffffff;gradientColor=none;fontSize=14;" vertex="1" parent="jiuOkP8X30983bxHW5AK-1">
          <mxGeometry x="284" y="466" width="120" height="50" as="geometry"/>
        </mxCell>
        <mxCell id="t2a3-KyeCBMco-ZNKFPz-22" style="edgeStyle=orthogonalEdgeStyle;rounded=0;orthogonalLoop=1;jettySize=auto;html=1;entryX=0.5;entryY=0;entryDx=0;entryDy=0;fontSize=14;" edge="1" parent="jiuOkP8X30983bxHW5AK-1" source="t2a3-KyeCBMco-ZNKFPz-11" target="t2a3-KyeCBMco-ZNKFPz-21">
          <mxGeometry relative="1" as="geometry"/>
        </mxCell>
        <mxCell id="t2a3-KyeCBMco-ZNKFPz-11" value="&lt;font style=&quot;font-size: 12px&quot;&gt;Orientar o cliente sobre pendências, solicitar retorno com documentação, e encerrar o atendimento.&lt;/font&gt;" style="rounded=0;whiteSpace=wrap;html=1;fillColor=#ffffff;gradientColor=none;fontSize=14;" vertex="1" parent="jiuOkP8X30983bxHW5AK-1">
          <mxGeometry x="29" y="454" width="160" height="72" as="geometry"/>
        </mxCell>
        <mxCell id="t2a3-KyeCBMco-ZNKFPz-21" value="&lt;font style=&quot;font-size: 12px&quot;&gt;Fim&lt;/font&gt;" style="ellipse;whiteSpace=wrap;html=1;aspect=fixed;fillColor=#ffffff;gradientColor=none;fontSize=14;" vertex="1" parent="jiuOkP8X30983bxHW5AK-1">
          <mxGeometry x="84.5" y="586" width="49" height="49" as="geometry"/>
        </mxCell>
        <mxCell id="t2a3-KyeCBMco-ZNKFPz-23" value="Abertura de RA&lt;br&gt;(GSAN)" style="rounded=1;whiteSpace=wrap;html=1;fillColor=#ffffff;gradientColor=none;fontSize=14;" vertex="1" parent="jiuOkP8X30983bxHW5AK-1">
          <mxGeometry x="264" y="596" width="160" height="60" as="geometry"/>
        </mxCell>
        <mxCell id="t2a3-KyeCBMco-ZNKFPz-25" value="&lt;p style=&quot;line-height: 100%&quot;&gt;&lt;/p&gt;&lt;p&gt;&lt;b&gt;&lt;font style=&quot;font-size: 14px&quot;&gt;A - ATENDIMENTO&lt;/font&gt;&lt;/b&gt;&lt;br&gt;&lt;font style=&quot;line-height: 100% ; font-size: 12px&quot;&gt;Fluxograma detalhado da Etapa de Atendimento.&lt;/font&gt;&lt;/p&gt;&lt;p&gt;&lt;/p&gt;" style="text;html=1;strokeColor=none;fillColor=none;spacing=5;spacingTop=-20;whiteSpace=wrap;overflow=hidden;rounded=0;fontSize=14;" vertex="1" parent="jiuOkP8X30983bxHW5AK-1">
          <mxGeometry x="530" y="131.5" width="279" height="60" as="geometry"/>
        </mxCell>
        <mxCell id="t2a3-KyeCBMco-ZNKFPz-27" value="&lt;p style=&quot;line-height: 100%&quot;&gt;&lt;/p&gt;&lt;p&gt;&lt;span style=&quot;font-size: 24px&quot;&gt;&lt;b&gt;Redesenho de Processos&amp;nbsp;&lt;/b&gt;&lt;/span&gt;&lt;b style=&quot;font-size: 24px&quot;&gt;da Cadeia de Valor&lt;/b&gt;&lt;/p&gt;&lt;p&gt;&lt;/p&gt;" style="text;html=1;strokeColor=none;fillColor=none;spacing=5;spacingTop=-20;whiteSpace=wrap;overflow=hidden;rounded=0;fontSize=14;" vertex="1" parent="jiuOkP8X30983bxHW5AK-1">
          <mxGeometry x="21" y="54" width="565" height="41" as="geometry"/>
        </mxCell>
        <mxCell id="t2a3-KyeCBMco-ZNKFPz-28" value="&lt;p style=&quot;line-height: 80%&quot;&gt;&lt;/p&gt;&lt;p&gt;&lt;b&gt;&lt;font style=&quot;font-size: 18px&quot;&gt;Macroprocesso: Serviços Operacionais&lt;br&gt;&lt;/font&gt;&lt;/b&gt;&lt;b&gt;&lt;font size=&quot;3&quot;&gt;Processo: Ligação de Água&lt;/font&gt;&lt;/b&gt;&lt;/p&gt;&lt;p&gt;&lt;/p&gt;" style="text;html=1;strokeColor=none;fillColor=none;spacing=5;spacingTop=-20;whiteSpace=wrap;overflow=hidden;rounded=0;fontSize=14;" vertex="1" parent="jiuOkP8X30983bxHW5AK-1">
          <mxGeometry x="22" y="93" width="535" height="57" as="geometry"/>
        </mxCell>
        <UserObject label="&lt;b&gt;&lt;br&gt;FLUXOGRAMA GERAL&lt;/b&gt;" link="data:page/id,wLkoinlVrgHqXl1Fj19s" id="-xbD1bsOE6c5fSKQA7YG-0">
          <mxCell style="text;html=1;strokeColor=none;fillColor=none;spacing=5;spacingTop=-20;whiteSpace=wrap;overflow=hidden;rounded=0;fontSize=14;" vertex="1" parent="jiuOkP8X30983bxHW5AK-1">
            <mxGeometry x="528" y="104" width="279" height="28" as="geometry"/>
          </mxCell>
        </UserObject>
      </root>
    </mxGraphModel>
  </diagram>
  <diagram id="kKsgfe0-I46FzN-im9zf" name="Anotações gerais - provisório">
    <mxGraphModel dx="671" dy="502" grid="1" gridSize="10" guides="1" tooltips="1" connect="1" arrows="1" fold="1" page="1" pageScale="1" pageWidth="1169" pageHeight="827" math="0" shadow="0">
      <root>
        <mxCell id="JDu8-fPftrPs1c6z16VM-0"/>
        <mxCell id="JDu8-fPftrPs1c6z16VM-1" parent="JDu8-fPftrPs1c6z16VM-0"/>
        <mxCell id="JDu8-fPftrPs1c6z16VM-2" value="&lt;div style=&quot;text-align: justify&quot;&gt;A. SOLICITAÇÃO&lt;/div&gt;&lt;div style=&quot;text-align: justify&quot;&gt;0. Pré-atendimento&lt;/div&gt;&lt;div style=&quot;text-align: justify&quot;&gt;0.1 Recepção&lt;/div&gt;&lt;div style=&quot;text-align: justify&quot;&gt;0.2 Triagem: Análise da demanda e triagem&lt;/div&gt;&lt;div style=&quot;text-align: justify&quot;&gt;&lt;br&gt;&lt;/div&gt;&lt;div style=&quot;text-align: justify&quot;&gt;1. Atendimento&lt;/div&gt;&lt;div style=&quot;text-align: justify&quot;&gt;1.1 Checklist de documentação&lt;/div&gt;&lt;div style=&quot;text-align: justify&quot;&gt;2. Registro&lt;/div&gt;&lt;div style=&quot;text-align: justify&quot;&gt;2.1 Abertura de RA no GSAN&lt;/div&gt;&lt;div style=&quot;text-align: justify&quot;&gt;&lt;br&gt;&lt;/div&gt;&lt;div style=&quot;text-align: justify&quot;&gt;B. ANÁLISE DE VIABILIDADE TÉCNICA&lt;/div&gt;&lt;div style=&quot;text-align: justify&quot;&gt;1. Abertura de Ordem de Serviço de Análise de Viabilidade Técnica&lt;/div&gt;&lt;div style=&quot;text-align: justify&quot;&gt;2. Consulta no BDG Deso Sertão - camadas Dutos de água e Micromedidores&lt;/div&gt;&lt;div style=&quot;text-align: justify&quot;&gt;2.1 Acessar o Sistema&lt;/div&gt;&lt;div style=&quot;text-align: justify&quot;&gt;2.2 Entrar com os dados de localização (endereço, coordenadas, croquis) e analisar&lt;/div&gt;&lt;div style=&quot;text-align: justify&quot;&gt;&lt;br&gt;&lt;/div&gt;&lt;div style=&quot;text-align: justify&quot;&gt;Decisão: Com base nos dados existentes é possível identificar se existe Rede de Distribuição em condições de atendimento ao endereço solicitado?&lt;/div&gt;&lt;div style=&quot;text-align: justify&quot;&gt;&lt;br&gt;&lt;/div&gt;&lt;div style=&quot;text-align: justify&quot;&gt;Não: Realizar Vistoria - (Abertura de Ordem de Serviço)&lt;/div&gt;&lt;div style=&quot;text-align: justify&quot;&gt;Sim: Proceder ao cadastro comercial&lt;/div&gt;&lt;div style=&quot;text-align: justify&quot;&gt;&lt;br&gt;&lt;/div&gt;&lt;div style=&quot;text-align: justify&quot;&gt;2. Cadastro Comercial&lt;/div&gt;&lt;div style=&quot;text-align: justify&quot;&gt;2.1 Abertura de Ordem de Serviço para Cadastro Comercial&lt;/div&gt;&lt;div style=&quot;text-align: justify&quot;&gt;2.1 Inserir imóvel (Situação 2)&lt;/div&gt;&lt;div style=&quot;text-align: justify&quot;&gt;2.2 Encerramento de Ordem de Serviço&lt;/div&gt;&lt;div style=&quot;text-align: justify&quot;&gt;2.3 Encaminhamento para fase de Execução&lt;/div&gt;&lt;div style=&quot;text-align: justify&quot;&gt;&lt;br&gt;&lt;/div&gt;&lt;div style=&quot;text-align: justify&quot;&gt;C. EXECUÇÃO&lt;/div&gt;&lt;div style=&quot;text-align: justify&quot;&gt;1. Programação&lt;/div&gt;&lt;div style=&quot;text-align: justify&quot;&gt;1.1 Abertura de Ordem de Serviço para Execução&lt;/div&gt;&lt;div style=&quot;text-align: justify&quot;&gt;1.2 Lançamento na programação (Planilha Geral de Controle de Execução de Ligações)&lt;/div&gt;&lt;div style=&quot;text-align: justify&quot;&gt;&lt;br&gt;&lt;/div&gt;&lt;div style=&quot;text-align: justify&quot;&gt;2. Implantação&lt;/div&gt;&lt;div style=&quot;text-align: justify&quot;&gt;2.1 Agendamento de Visita com o cliente - informe sobre execução do serviço&lt;/div&gt;&lt;div style=&quot;text-align: justify&quot;&gt;2.2 Execução da ligação&lt;/div&gt;&lt;div style=&quot;text-align: justify&quot;&gt;2.3 Prestação de contas com Unidade de Ligações (retorno da OS)&lt;/div&gt;&lt;div style=&quot;text-align: justify&quot;&gt;&lt;br&gt;&lt;/div&gt;&lt;div style=&quot;text-align: justify&quot;&gt;D. ENCERRAMENTO&lt;/div&gt;&lt;div style=&quot;text-align: justify&quot;&gt;1. Validação (Unidade de Ligações valida o serviço)&lt;/div&gt;&lt;div style=&quot;text-align: justify&quot;&gt;&lt;br&gt;&lt;/div&gt;&lt;div style=&quot;text-align: justify&quot;&gt;Decisão: Serviço conforme e executado a contendo?&lt;/div&gt;&lt;div style=&quot;text-align: justify&quot;&gt;Não: Retorna para Retificação&lt;/div&gt;&lt;div style=&quot;text-align: justify&quot;&gt;Sim: Encerramento&lt;/div&gt;&lt;div style=&quot;text-align: justify&quot;&gt;&lt;br&gt;&lt;/div&gt;&lt;div style=&quot;text-align: justify&quot;&gt;2. Encerramento&lt;/div&gt;&lt;div style=&quot;text-align: justify&quot;&gt;2.1 Encerramento da OS&lt;/div&gt;&lt;div style=&quot;text-align: justify&quot;&gt;2.2 Encerramento da RA&lt;/div&gt;&lt;div style=&quot;text-align: justify&quot;&gt;2.3 Lançamento na planilha de controle de execução&lt;/div&gt;" style="text;html=1;strokeColor=none;fillColor=none;align=center;verticalAlign=middle;whiteSpace=wrap;rounded=0;fontSize=14;" vertex="1" parent="JDu8-fPftrPs1c6z16VM-1">
          <mxGeometry x="10" y="10" width="580" height="800" as="geometry"/>
        </mxCell>
      </root>
    </mxGraphModel>
  </diagram>
</mxfile>
